<svg width="73" height="276" viewBox="0 0 73 276" fill="none" xmlns="http://www.w3.org/2000/svg">
<path d="M73 275.511L11.9932 240.263C4.57149 235.975 8.23237e-05 228.054 0 219.482V56.5176C0.000173277 47.9462 4.57151 40.0254 11.9932 35.7373L73 0.488281V275.511Z" fill="#050505"/>
<path d="M73 17.4297L28.9424 41.584C21.578 45.6218 17 53.3532 17 61.752V214.248C17 222.647 21.578 230.378 28.9424 234.416L73 258.569V259.71L28.4619 235.293C20.7772 231.08 16 223.012 16 214.248V61.752C16 52.9879 20.7771 44.9204 28.4619 40.707L73 16.29V17.4297Z" fill="white" fill-opacity="0.05"/>
</svg>
